<svg id="layer1" xmlns="http://www.w3.org/2000/svg" viewBox="0 0 52.84 76.23"><defs><style>.cls-1{fill:#83ffb5;}.cls-1,.cls-2,.cls-3{stroke:#000;}.cls-1,.cls-2,.cls-3,.cls-6{stroke-miterlimit:10;}.cls-2{fill:#ccc;stroke-width:0.75px;}.cls-3,.cls-8{fill:#fff;}.cls-4{font-size:21.56px;fill:#008e39;font-family:BrushScriptMT, Brush Script MT;}.cls-5{letter-spacing:-0.01em;}.cls-6,.cls-7{fill:#ffe94d;}.cls-6{stroke:#ffe94d;stroke-width:0.5px;}</style></defs><g id="logo_0.25_" data-name="logo 0.25&quot;"><path id="bottle" class="cls-1" d="M672.58,345.52a5.87,5.87,0,0,1,7,0s-1.29,9.79,1,17.77c0,0,3.42,5.48,3.68,9.54l.25,22.47a2.67,2.67,0,0,1-2.83,2.32H669.81a2.74,2.74,0,0,1-2.19-2.64V373.15a18.29,18.29,0,0,1,4.32-9.53S674,352.47,672.58,345.52Z" transform="translate(-657.73 -343.84)"/><path id="path" class="cls-2" d="M680.49,363.52a13.87,13.87,0,0,1-8.47.27l.8-6.63a7.91,7.91,0,0,0,6.41,0Z" transform="translate(-657.73 -343.84)"/><path id="path-2" data-name="path" class="cls-3" d="M667.62,387.79h1.75c6.34,5,13.7,0,13.7,0h1.29l-.16-11.35h-1.72c-6.28-5-13.58,0-13.58,0h-1.28Z" transform="translate(-657.73 -343.84)"/><text class="cls-4" transform="translate(0 68.95)">Rol<tspan class="cls-5" x="25.82" y="0">e</tspan><tspan x="31.83" y="0">x</tspan></text><g id="rolex"><circle class="cls-6" cx="14.38" cy="36.15" r="0.53"/><circle class="cls-6" cx="18.17" cy="34.22" r="0.53"/><circle class="cls-6" cx="16.09" cy="34.75" r="0.53"/><circle class="cls-6" cx="22.03" cy="36.15" r="0.53"/><circle class="cls-6" cx="20.23" cy="34.75" r="0.53"/><path class="cls-7" d="M672.11,380.33l1.72,5.79s2.15,2.08,4.13,0l1.73-5.73-2,4.07.25-5.58-1.35,5.48-.71-6-.66,6.05-1.3-5.51.24,5.53Z" transform="translate(-657.73 -343.84)"/><ellipse class="cls-8" cx="18.16" cy="42.24" rx="1.82" ry="0.52"/></g></g></svg>